<?xml version="1.0" encoding="utf-8"?>
<!-- Generator: Adobe Illustrator 24.0.2, SVG Export Plug-In . SVG Version: 6.00 Build 0)  -->
<svg version="1.1" id="Layer_1" xmlns="http://www.w3.org/2000/svg" xmlns:xlink="http://www.w3.org/1999/xlink" x="0px" y="0px"
	 viewBox="0 0 161.17 161.17" style="enable-background:new 0 0 161.17 161.17;" xml:space="preserve">
<style type="text/css">
	.st0{fill:#1D6960;}
</style>
<g>
	<path class="st0" d="M155.41,161.17h-17.29c-3.1,0-5.63-2.46-5.76-5.56C129.54,86.85,74.34,31.63,5.56,28.81
		C2.46,28.68,0,26.16,0,23.06V5.76C0,2.51,2.69-0.11,5.94,0c84.53,3.03,152.21,71.11,155.23,155.23
		C161.28,158.48,158.66,161.17,155.41,161.17z M103.52,161.17H86.23c-3.03,0-5.57-2.33-5.76-5.36
		C77.84,115.5,45.59,83.33,5.36,80.71C2.33,80.51,0,77.97,0,74.95V57.65c0-3.29,2.75-5.93,6.04-5.75
		c55.68,3.01,100.23,47.61,103.23,103.23C109.45,158.42,106.81,161.17,103.52,161.17z M23.04,161.17C10.31,161.17,0,150.86,0,138.13
		c0-12.72,10.31-23.04,23.04-23.04c12.72,0,23.04,10.31,23.04,23.04S35.76,161.17,23.04,161.17z"/>
</g>
</svg>
