<svg id="icon-checkout" xmlns="http://www.w3.org/2000/svg" width="72" height="72" viewBox="0 0 72 72">
  <path id="Path_6109" data-name="Path 6109" d="M35.674,35.908A17.954,17.954,0,1,1,53.618,17.944,17.959,17.959,0,0,1,35.674,35.908Zm0-32.324A14.359,14.359,0,1,0,50.033,17.944,14.369,14.369,0,0,0,35.674,3.585Z" transform="translate(18.382 0)" fill="#1d6960"/>
  <g id="Group_856" data-name="Group 856" transform="translate(47.294 5.703)">
    <path id="Path_6110" data-name="Path 6110" d="M31.713,22.2H28.577a5.342,5.342,0,0,1-5.336-5.336,1.792,1.792,0,1,1,3.585,0,1.752,1.752,0,0,0,1.752,1.752h3.137a1.43,1.43,0,0,0,1.426-1.426A1.461,1.461,0,0,0,32.1,15.8l-5.235-1.487A5.026,5.026,0,0,1,28.251,4.46h3.137A5.342,5.342,0,0,1,36.724,9.8a1.792,1.792,0,1,1-3.585,0,1.752,1.752,0,0,0-1.752-1.752H28.251A1.43,1.43,0,0,0,26.825,9.47a1.461,1.461,0,0,0,1.039,1.385L33.1,12.342A5.026,5.026,0,0,1,31.713,22.2Z" transform="translate(-23.22 -1.079)" fill="#1d6960"/>
    <path id="Path_6111" data-name="Path 6111" d="M27.452,9.766A1.782,1.782,0,0,1,25.66,7.973V4.592a1.792,1.792,0,1,1,3.585,0V7.973A1.8,1.8,0,0,1,27.452,9.766Z" transform="translate(-20.69 -2.8)" fill="#1d6960"/>
    <path id="Path_6112" data-name="Path 6112" d="M27.452,18.376a1.782,1.782,0,0,1-1.792-1.792V13.2a1.792,1.792,0,1,1,3.585,0v3.381A1.8,1.8,0,0,1,27.452,18.376Z" transform="translate(-20.69 6.127)" fill="#1d6960"/>
  </g>
  <path id="Path_6113" data-name="Path 6113" d="M32.644,11.465H5.982a1.792,1.792,0,1,1,0-3.585H32.644a1.792,1.792,0,1,1,0,3.585Z" transform="translate(4.344 8.17)" fill="#1d6960"/>
  <path id="Path_6114" data-name="Path 6114" d="M17.944,53.618A17.944,17.944,0,1,1,35.888,35.674,17.959,17.959,0,0,1,17.944,53.618Zm0-32.3A14.359,14.359,0,1,0,32.3,35.674,14.369,14.369,0,0,0,17.944,21.315Z" transform="translate(0 18.382)" fill="#1d6960"/>
  <g id="Group_857" data-name="Group 857" transform="translate(11.182 41.815)">
    <path id="Path_6115" data-name="Path 6115" d="M13.983,39.93H10.847A5.342,5.342,0,0,1,5.51,34.594a1.792,1.792,0,0,1,3.585,0,1.752,1.752,0,0,0,1.752,1.752h3.137a1.43,1.43,0,0,0,1.426-1.426,1.461,1.461,0,0,0-1.039-1.385L9.136,32.048a5.026,5.026,0,0,1,1.385-9.858h3.137a5.342,5.342,0,0,1,5.336,5.336,1.792,1.792,0,0,1-3.585,0,1.752,1.752,0,0,0-1.752-1.752H10.521A1.43,1.43,0,0,0,9.1,27.2a1.461,1.461,0,0,0,1.039,1.385l5.235,1.487a5.026,5.026,0,0,1-1.385,9.858Z" transform="translate(-5.49 -18.809)" fill="#1d6960"/>
    <path id="Path_6116" data-name="Path 6116" d="M9.722,27.5A1.782,1.782,0,0,1,7.93,25.7V22.322a1.792,1.792,0,1,1,3.585,0V25.7A1.8,1.8,0,0,1,9.722,27.5Z" transform="translate(-2.96 -20.53)" fill="#1d6960"/>
    <path id="Path_6117" data-name="Path 6117" d="M9.722,36.1A1.782,1.782,0,0,1,7.93,34.3V30.922a1.792,1.792,0,0,1,3.585,0V34.3A1.782,1.782,0,0,1,9.722,36.1Z" transform="translate(-2.96 -11.614)" fill="#1d6960"/>
  </g>
  <path id="Path_6118" data-name="Path 6118" d="M44.774,29.195H18.112a1.792,1.792,0,0,1,0-3.585H44.774a1.792,1.792,0,0,1,0,3.585Z" transform="translate(16.92 26.552)" fill="#1d6960"/>
  <path id="Path_6119" data-name="Path 6119" d="M31.244,23.487l7.984,5.336a1.218,1.218,0,0,1,0,2.016l-7.984,5.336a1.221,1.221,0,0,1-1.894-1.018V24.506A1.215,1.215,0,0,1,31.244,23.487Z" transform="translate(30.429 24.132)" fill="#1d6960"/>
  <path id="Path_6120" data-name="Path 6120" d="M9.406,18.426,1.422,13.11a1.218,1.218,0,0,1,0-2.016L9.406,5.758a1.213,1.213,0,0,1,1.894,1V17.408A1.215,1.215,0,0,1,9.406,18.426Z" transform="translate(0.92 5.75)" fill="#1d6960"/>
</svg>
