<?xml version="1.0" encoding="utf-8"?>
<!-- Generator: Adobe Illustrator 24.0.2, SVG Export Plug-In . SVG Version: 6.00 Build 0)  -->
<svg version="1.1" id="Layer_1" xmlns="http://www.w3.org/2000/svg" xmlns:xlink="http://www.w3.org/1999/xlink" x="0px" y="0px"
	 viewBox="0 0 161.17 161.17" style="enable-background:new 0 0 161.17 161.17;" xml:space="preserve">
<style type="text/css">
	.st0{fill:#1D6960;}
</style>
<g>
	<path class="st0" d="M161.17,11.62v137.93c0,6.4-5.18,11.62-11.51,11.62H11.48C5.14,161.17,0,155.95,0,149.55V11.62
		C0,5.22,5.14,0,11.48,0h138.18C155.99,0,161.17,5.22,161.17,11.62z M50.62,36.88c0-7.63-6.22-13.85-13.85-13.85
		c-7.66,0-13.85,6.22-13.85,13.85s6.19,13.85,13.85,13.85S50.62,44.54,50.62,36.88z M48.75,138.15V61.23H24.82v76.92h23.89H48.75z
		 M138.25,95.98c0-20.72-4.5-36.66-28.67-36.66c-11.62,0-19.43,6.37-22.63,12.41h-0.32v-10.5H63.71v76.92H87.6v-38.06
		c0-10.04,1.91-19.75,14.35-19.75c12.23,0,12.41,11.48,12.41,20.4v37.41h23.89V95.98z"/>
</g>
</svg>
