<svg id="Group_620" data-name="Group 620" xmlns="http://www.w3.org/2000/svg" width="42.104" height="43.276" viewBox="0 0 42.104 43.276">
  <path id="Path_4132" data-name="Path 4132" d="M16.167,53.426a1.109,1.109,0,0,1-1.111-1.108V45.66a1.109,1.109,0,0,1,1.111-1.11h3.4A3.259,3.259,0,0,0,22.824,41.3V35.673a1.109,1.109,0,0,1,1.11-1.108h2.519a.9.9,0,0,0,.831-1.252l-5.473-13a12.27,12.27,0,0,0-6.972-6.7l-3.5-1.314a1.11,1.11,0,0,1,.78-2.079l3.5,1.314a14.5,14.5,0,0,1,8.238,7.917l5.474,13a3.121,3.121,0,0,1-2.877,4.331H25.043V41.3a5.48,5.48,0,0,1-5.474,5.474H17.276v5.549A1.109,1.109,0,0,1,16.167,53.426Z" transform="translate(-10.618 -10.15)" fill="#1d6960"/>
  <path id="Path_4133" data-name="Path 4133" d="M29.169,46.7a1.048,1.048,0,0,1-1.048-1.048V37.883a1.048,1.048,0,0,1,2.1,0V43.12L36.2,37.142a1.048,1.048,0,0,1,.741-.307H48.01a1.2,1.2,0,0,0,1.194-1.2V13.494a1.2,1.2,0,0,0-1.194-1.2H19.182a1.048,1.048,0,0,1,0-2.1H48.01A3.294,3.294,0,0,1,51.3,13.494V35.64a3.294,3.294,0,0,1-3.289,3.291H37.371l-7.461,7.46A1.044,1.044,0,0,1,29.169,46.7Z" transform="translate(-9.196 -10.14)" fill="#1d6960"/>
  <ellipse id="Ellipse_14" data-name="Ellipse 14" cx="2.096" cy="2.096" rx="2.096" ry="2.096" transform="translate(25.522 12.207)" fill="#1d6960"/>
  <ellipse id="Ellipse_15" data-name="Ellipse 15" cx="2.096" cy="2.096" rx="2.096" ry="2.096" transform="translate(33.289 12.207)" fill="#1d6960"/>
  <ellipse id="Ellipse_16" data-name="Ellipse 16" cx="2.096" cy="2.096" rx="2.096" ry="2.096" transform="translate(17.754 12.207)" fill="#1d6960"/>
</svg>
