<svg id="Group_738" data-name="Group 738" xmlns="http://www.w3.org/2000/svg" width="41.751" height="41.766" viewBox="0 0 41.751 41.766">
  <path id="Path_5121" data-name="Path 5121" d="M11.716,52.435a1.038,1.038,0,0,1-1.04-1.041V13.915a3.235,3.235,0,0,1,3.056-3.228,1.014,1.014,0,0,1,.189-.018H49.195A3.235,3.235,0,0,1,52.427,13.9v37.48a1.042,1.042,0,0,1-.3.736,1.066,1.066,0,0,1-1.216.207l-6.135-3.074-6.148,3.074a1.036,1.036,0,0,1-.932,0l-6.147-3.074L25.4,52.325a1.036,1.036,0,0,1-.932,0l-6.148-3.074-6.135,3.074A1.03,1.03,0,0,1,11.716,52.435Zm6.6-5.388a1.044,1.044,0,0,1,.467.109l6.148,3.075,6.148-3.075a1.036,1.036,0,0,1,.932,0l6.147,3.075,6.148-3.075a1.032,1.032,0,0,1,.932,0l5.108,2.559V13.9a1.154,1.154,0,0,0-1.152-1.152H14.071a.95.95,0,0,1-.163.014,1.153,1.153,0,0,0-1.152,1.151V49.71l5.1-2.554A1.039,1.039,0,0,1,18.317,47.047Z" transform="translate(-10.676 -10.67)" fill="#1d6960"/>
  <path id="Path_5122" data-name="Path 5122" d="M43.169,18.35H26.635a1.041,1.041,0,0,1,0-2.082H43.169a1.041,1.041,0,0,1,0,2.082Z" transform="translate(-7.97 -9.655)" fill="#1d6960"/>
  <path id="Path_5123" data-name="Path 5123" d="M43.169,24.881H26.635a1.04,1.04,0,1,1,0-2.08H43.169a1.04,1.04,0,1,1,0,2.08Z" transform="translate(-7.97 -8.47)" fill="#1d6960"/>
  <path id="Path_5124" data-name="Path 5124" d="M45.031,31.412H16.371a1.04,1.04,0,1,1,0-2.08h28.66a1.04,1.04,0,1,1,0,2.08Z" transform="translate(-9.832 -7.285)" fill="#1d6960"/>
  <path id="Path_5125" data-name="Path 5125" d="M45.031,37.945H16.371a1.041,1.041,0,1,1,0-2.082h28.66a1.041,1.041,0,0,1,0,2.082Z" transform="translate(-9.832 -6.101)" fill="#1d6960"/>
  <g id="Group_737" data-name="Group 737" transform="translate(5.202 4.409)">
    <path id="Path_5126" data-name="Path 5126" d="M21.323,28.906H18.876a3.8,3.8,0,0,1-3.8-3.8,1.041,1.041,0,0,1,2.082,0,1.718,1.718,0,0,0,1.715,1.715h2.447a1.473,1.473,0,0,0,.4-2.888l-4.071-1.162a3.555,3.555,0,0,1,.978-6.972H21.08a3.8,3.8,0,0,1,3.8,3.8,1.041,1.041,0,0,1-2.082,0,1.717,1.717,0,0,0-1.714-1.714H18.634a1.473,1.473,0,0,0-.405,2.888l4.07,1.162a3.554,3.554,0,0,1-.976,6.971Z" transform="translate(-15.079 -14.148)" fill="#1d6960"/>
    <path id="Path_5127" data-name="Path 5127" d="M19.385,18.138A1.041,1.041,0,0,1,18.344,17.1V15.443a1.041,1.041,0,0,1,2.082,0V17.1A1.04,1.04,0,0,1,19.385,18.138Z" transform="translate(-14.487 -14.402)" fill="#1d6960"/>
    <path id="Path_5128" data-name="Path 5128" d="M19.385,28.869a1.042,1.042,0,0,1-1.041-1.041V26.173a1.041,1.041,0,0,1,2.082,0v1.655A1.041,1.041,0,0,1,19.385,28.869Z" transform="translate(-14.487 -12.456)" fill="#1d6960"/>
  </g>
</svg>
