<svg id="Group_1658" data-name="Group 1658" xmlns="http://www.w3.org/2000/svg" width="93.867" height="72" viewBox="0 0 93.867 72">
  <path id="Path_6128" data-name="Path 6128" d="M78.971,62.571H25.941a8.165,8.165,0,0,1-8.1-6.9L9.64,4.4H2.206a2.206,2.206,0,0,1,0-4.412h9.309a2.26,2.26,0,0,1,2.162,1.875l8.493,53.1a3.818,3.818,0,0,0,3.772,3.221H78.971a2.195,2.195,0,1,1,0,4.39Z" transform="translate(0 0.01)" fill="#1d6960"/>
  <ellipse id="Ellipse_25" data-name="Ellipse 25" cx="3.485" cy="3.485" rx="3.485" ry="3.485" transform="translate(23.14 65.029)" fill="#1d6960"/>
  <ellipse id="Ellipse_26" data-name="Ellipse 26" cx="3.485" cy="3.485" rx="3.485" ry="3.485" transform="translate(69.662 65.029)" fill="#1d6960"/>
  <path id="Path_6129" data-name="Path 6129" d="M10.625,47.113a2.2,2.2,0,0,1-.066-4.39l54.154-2.007A9.338,9.338,0,0,0,73.4,33.657l5.8-23.25a2.245,2.245,0,0,0-.419-1.963,2.322,2.322,0,0,0-1.809-.882H12.963a2.206,2.206,0,0,1,0-4.412H77a6.665,6.665,0,0,1,6.485,8.294l-5.8,23.25a13.809,13.809,0,0,1-12.794,10.39L10.713,47.113Z" transform="translate(10.177 3.821)" fill="#1d6960"/>
</svg>
