<svg id="icon-api" xmlns="http://www.w3.org/2000/svg" width="90.602" height="72" viewBox="0 0 90.602 72">
  <path id="Path_6121" data-name="Path 6121" d="M88.693,45.7H1.952A1.953,1.953,0,0,1,0,43.744V37.551a2.055,2.055,0,0,1,.247-.965L8.5,22.137a1.934,1.934,0,0,1,1.683-.987H80.414a1.934,1.934,0,0,1,1.683.987l8.257,14.449a1.821,1.821,0,0,1,.247.965v6.193A1.888,1.888,0,0,1,88.693,45.7ZM3.9,41.792H86.741V38.067L79.314,25.054H11.331L3.9,38.067v3.725Z" transform="translate(0 26.304)" fill="#1d6960"/>
  <path id="Path_6122" data-name="Path 6122" d="M5.632,49.072A1.953,1.953,0,0,1,3.68,47.12V7.9A6.085,6.085,0,0,1,9.76,1.82h6.193a1.941,1.941,0,1,1,0,3.882H9.76A2.178,2.178,0,0,0,7.584,7.878V47.12A1.953,1.953,0,0,1,5.632,49.072Z" transform="translate(4.577 2.264)" fill="#1d6960"/>
  <path id="Path_6123" data-name="Path 6123" d="M41.509,49.072a1.953,1.953,0,0,1-1.952-1.952V7.9A2.178,2.178,0,0,0,37.38,5.724H33.252a1.952,1.952,0,1,1,0-3.9h4.106a6.085,6.085,0,0,1,6.08,6.08V47.143A1.915,1.915,0,0,1,41.509,49.072Z" transform="translate(38.927 2.264)" fill="#1d6960"/>
  <path id="Path_6124" data-name="Path 6124" d="M47.922,31.412H22.883a4.8,4.8,0,0,1-4.757-4.061l-3.747-23.4H11.664A1.963,1.963,0,0,1,9.69,1.974,1.963,1.963,0,0,1,11.664,0h4.4a1.976,1.976,0,0,1,1.952,1.66L22.03,26.745a.848.848,0,0,0,.853.718h25.04a1.974,1.974,0,1,1,0,3.949Z" transform="translate(12.051)" fill="#1d6960"/>
  <ellipse id="Ellipse_23" data-name="Ellipse 23" cx="2.49" cy="2.49" rx="2.49" ry="2.49" transform="translate(32.758 32.87)" fill="#1d6960"/>
  <ellipse id="Ellipse_24" data-name="Ellipse 24" cx="2.49" cy="2.49" rx="2.49" ry="2.49" transform="translate(54.791 32.87)" fill="#1d6960"/>
  <path id="Path_6125" data-name="Path 6125" d="M15.585,24.109A1.978,1.978,0,0,1,13.611,22.2a1.95,1.95,0,0,1,1.907-2.042L41.1,19.218a3.491,3.491,0,0,0,3.231-2.625L47.064,5.621l-30.38-.2a1.974,1.974,0,0,1,0-3.949H46.93a4.1,4.1,0,0,1,3.231,1.571,4.045,4.045,0,0,1,.74,3.523l-2.76,10.972a7.417,7.417,0,0,1-6.911,5.609l-25.578.942C15.63,24.086,15.608,24.109,15.585,24.109Z" transform="translate(16.926 1.828)" fill="#1d6960"/>
  <path id="Path_6126" data-name="Path 6126" d="M66.212,27.8H8.392a1.952,1.952,0,0,1,0-3.9h57.82a1.952,1.952,0,0,1,0,3.9Z" transform="translate(8.009 29.724)" fill="#1d6960"/>
  <path id="Path_6127" data-name="Path 6127" d="M37.676,30.748H15.844a.909.909,0,0,1-.808-1.324L16.2,27.114a.894.894,0,0,1,.808-.494h19.52a.936.936,0,0,1,.808.494l1.167,2.311A.937.937,0,0,1,37.676,30.748Z" transform="translate(18.574 33.107)" fill="#1d6960"/>
</svg>
