<svg id="Group_739" data-name="Group 739" xmlns="http://www.w3.org/2000/svg" width="43.856" height="47.031" viewBox="0 0 43.856 47.031">
  <path id="Path_5129" data-name="Path 5129" d="M34.413,58.368c-7.443,0-21.929-10.015-21.929-28.376V24.07a4.211,4.211,0,0,1,2.339-3.785l16.4-8.2a7.174,7.174,0,0,1,6.377,0l16.4,8.2h0A4.212,4.212,0,0,1,56.34,24.07v5.922C56.34,48.353,41.854,58.368,34.413,58.368Zm0-44.453a4.545,4.545,0,0,0-2.035.478l-16.4,8.2a1.642,1.642,0,0,0-.914,1.478v5.922c0,17.866,14.02,25.8,19.349,25.8s19.348-7.932,19.348-25.8V24.07a1.644,1.644,0,0,0-.914-1.478l-16.4-8.2A4.541,4.541,0,0,0,34.411,13.915Z" transform="translate(-12.484 -11.337)" fill="#1d6960"/>
  <path id="Path_5130" data-name="Path 5130" d="M30.249,39.641a1.216,1.216,0,0,1-.863-.357l-9.028-9.028a1.218,1.218,0,0,1,1.722-1.724L30.249,36.7,43.575,23.374A1.218,1.218,0,0,1,45.3,25.1L31.11,39.285A1.215,1.215,0,0,1,30.249,39.641Z" transform="translate(-9.61 -6.871)" fill="#1d6960"/>
</svg>
