<svg id="Group_740" data-name="Group 740" xmlns="http://www.w3.org/2000/svg" width="43.409" height="49.973" viewBox="0 0 43.409 49.973">
  <path id="Path_5131" data-name="Path 5131" d="M33.51,39.672c-.215,0-.431,0-.649-.016A13.65,13.65,0,0,1,19.95,26.743,13.563,13.563,0,0,1,33.5,12.536H47.37A1.433,1.433,0,0,1,48.8,13.968a8.377,8.377,0,0,1-8.367,8.367H29.059a1.432,1.432,0,1,1,0-2.864H40.435A5.511,5.511,0,0,0,45.748,15.4H33.5A10.7,10.7,0,0,0,22.809,26.611,10.771,10.771,0,0,0,32.993,36.795,10.7,10.7,0,0,0,44.2,26.1a1.432,1.432,0,0,1,2.864,0A13.568,13.568,0,0,1,33.51,39.672Z" transform="translate(-11.905 -12.536)" fill="#1d6960"/>
  <path id="Path_5132" data-name="Path 5132" d="M24.467,24.617H21.433a1.432,1.432,0,0,1,0-2.864h3.034a3.122,3.122,0,0,0,3.118-3.12,1.432,1.432,0,1,1,2.864,0A5.989,5.989,0,0,1,24.467,24.617Z" transform="translate(-11.864 -9.617)" fill="#1d6960"/>
  <path id="Path_5133" data-name="Path 5133" d="M16.427,49.071a1.432,1.432,0,0,1-1.206-2.2L21.631,36.8a12.415,12.415,0,0,1,7.095-5.285,1.432,1.432,0,1,1,.78,2.756,9.555,9.555,0,0,0-5.457,4.067L17.636,48.406A1.429,1.429,0,0,1,16.427,49.071Z" transform="translate(-14.996 -0.698)" fill="#1d6960"/>
  <path id="Path_5134" data-name="Path 5134" d="M46.252,49.071a1.431,1.431,0,0,1-1.211-.665l-6.41-10.074a9.565,9.565,0,0,0-5.457-4.066,1.432,1.432,0,1,1,.78-2.756,12.411,12.411,0,0,1,7.093,5.284l6.412,10.076a1.433,1.433,0,0,1-1.206,2.2Z" transform="translate(-4.274 -0.698)" fill="#1d6960"/>
  <path id="Path_5135" data-name="Path 5135" d="M32.48,48.017,31.111,35.761a2.591,2.591,0,1,0-3.227,0L26.515,48.017a1.182,1.182,0,0,0,.41,1.034l1.806,1.533a1.188,1.188,0,0,0,1.533,0l1.806-1.533A1.186,1.186,0,0,0,32.48,48.017Z" transform="translate(-7.793 -0.892)" fill="#1d6960"/>
</svg>
