<svg id="Group_619" data-name="Group 619" xmlns="http://www.w3.org/2000/svg" width="45.786" height="45.788" viewBox="0 0 45.786 45.788">
  <g id="Globe" transform="translate(0 0)">
    <path id="Path_4124" data-name="Path 4124" d="M27.635,47.4A19.737,19.737,0,1,1,46.908,32.026a.985.985,0,0,1-1.922-.436,17.768,17.768,0,1,0-13.4,13.4.985.985,0,0,1,.434,1.922A19.86,19.86,0,0,1,27.635,47.4Z" transform="translate(-7.871 -7.87)" fill="#1d6960"/>
    <path id="Path_4125" data-name="Path 4125" d="M26.445,47.4c-4.765,0-8.5-8.682-8.5-19.764S21.68,7.87,26.445,7.87s8.5,8.682,8.5,19.764a46.7,46.7,0,0,1-.3,5.329.985.985,0,1,1-1.957-.226,44.8,44.8,0,0,0,.286-5.1c0-10.486-3.439-17.793-6.525-17.793s-6.527,7.307-6.527,17.793,3.44,17.793,6.527,17.793a3.756,3.756,0,0,0,2.663-1.7.986.986,0,0,1,1.56,1.206A5.475,5.475,0,0,1,26.445,47.4Z" transform="translate(-6.681 -7.87)" fill="#1d6960"/>
    <path id="Path_4126" data-name="Path 4126" d="M45.424,21.838H9.655a.986.986,0,0,1,0-1.971H45.424a.986.986,0,0,1,0,1.971Z" transform="translate(-7.777 -6.454)" fill="#1d6960"/>
    <path id="Path_4127" data-name="Path 4127" d="M34.843,31.435H9.655a.986.986,0,0,1,0-1.971H34.843a.986.986,0,0,1,0,1.971Z" transform="translate(-7.777 -5.321)" fill="#1d6960"/>
  </g>
  <path id="Path_4128" data-name="Path 4128" d="M39.5,51.32A11.825,11.825,0,1,1,51.319,39.5,11.837,11.837,0,0,1,39.5,51.32Zm0-21.678A9.853,9.853,0,1,0,49.349,39.5,9.865,9.865,0,0,0,39.5,29.642Z" transform="translate(-5.533 -5.532)" fill="#1d6960"/>
  <g id="Group_618" data-name="Group 618" transform="translate(29.653 26.804)">
    <path id="Path_4129" data-name="Path 4129" d="M39.86,44.586H37.752a3.363,3.363,0,0,1-3.359-3.359.985.985,0,1,1,1.97,0,1.39,1.39,0,0,0,1.389,1.388H39.86a1.18,1.18,0,0,0,.324-2.314l-3.507-1a3.15,3.15,0,0,1,.867-6.18h2.108a3.363,3.363,0,0,1,3.359,3.36.984.984,0,1,1-1.969,0,1.391,1.391,0,0,0-1.39-1.39H37.544a1.18,1.18,0,0,0-.324,2.316l3.506,1a3.15,3.15,0,0,1-.865,6.18Z" transform="translate(-34.393 -31.693)" fill="#1d6960"/>
    <path id="Path_4130" data-name="Path 4130" d="M38.351,35.24a.984.984,0,0,1-.985-.985V32.83a.985.985,0,1,1,1.97,0v1.424A.985.985,0,0,1,38.351,35.24Z" transform="translate(-34.042 -31.844)" fill="#1d6960"/>
    <path id="Path_4131" data-name="Path 4131" d="M38.351,45.008a.984.984,0,0,1-.985-.985V42.6a.985.985,0,1,1,1.97,0v1.424A.985.985,0,0,1,38.351,45.008Z" transform="translate(-34.042 -30.691)" fill="#1d6960"/>
  </g>
</svg>
