<svg xmlns="http://www.w3.org/2000/svg" width="209.8" height="93.961" viewBox="0 0 209.8 93.961">
  <g id="logo" transform="translate(0)">
    <g id="Logo_BoaCompra" data-name="Logo BoaCompra" transform="translate(104.311 46.841)">
      <g id="Group_6" data-name="Group 6" transform="translate(-104.311 -46.841)">
        <g id="Group_2" data-name="Group 2">
          <g id="Group_1" data-name="Group 1" transform="translate(78.134 2.089)">
            <path id="Path_1" data-name="Path 1" d="M408.794,36.4a7.469,7.469,0,0,0,2.765-.835,6.6,6.6,0,0,0,2.327-2.546,7.639,7.639,0,0,0,.855-3.62v-.04a12.183,12.183,0,0,0,.835,2.029,10.491,10.491,0,0,0,4.217,4.4,13.806,13.806,0,0,0,6.584,1.392,12.324,12.324,0,0,0,6.544-1.611,10.483,10.483,0,0,0,4-4.515,11.6,11.6,0,0,0,.557-1.392l-2.427,7.081h7.419L443.6,32.48h8.275l1.154,4.257h7.6l-8.832-25.8h-7.917l-6.345,18.5a19.708,19.708,0,0,0,.756-5.788q0-6.226-3.183-9.687T426.08,10.5q-5.729,0-8.931,3.521t-3.2,9.846a22.236,22.236,0,0,0,.119,2.327,5.744,5.744,0,0,0-.517-.875,6.509,6.509,0,0,0-3.72-2.288,5.606,5.606,0,0,0,2.526-1.731,6.147,6.147,0,0,0,1.293-3.939,6.266,6.266,0,0,0-1.83-4.575,6.965,6.965,0,0,0-5.212-1.85H393V36.757h12.532A28.5,28.5,0,0,0,408.794,36.4Zm38.968-18.778,2.606,9.289h-5.192Zm-25.223.617a4.237,4.237,0,0,1,3.521-1.711A4.44,4.44,0,0,1,429.7,18.2c.9,1.114,1.353,2.9,1.353,5.331q0,4.336-1.293,6.007a4.7,4.7,0,0,1-7.221-.04c-.875-1.134-1.313-3-1.313-5.629S421.644,19.392,422.539,18.238ZM400.32,16.169h3.222a3.428,3.428,0,0,1,2.327.637,2.252,2.252,0,0,1,.656,1.75,2.565,2.565,0,0,1-.656,1.85,3.442,3.442,0,0,1-2.367.637H400.32Zm0,15.038V25.976h3.7a3.969,3.969,0,0,1,2.665.7,2.367,2.367,0,0,1,.756,1.85,2.586,2.586,0,0,1-.776,1.969,3.757,3.757,0,0,1-2.646.736Z" transform="translate(-392.96 -10.5)" fill="#100f0c"/>
            <path id="Path_2" data-name="Path 2" d="M760.112,159.428a7.26,7.26,0,0,0-3.043-1.213,21.7,21.7,0,0,0-3.76-.239H744v25.8h3.262V173.292h6.325c3.5,0,5.908-.756,7.241-2.288a8.67,8.67,0,0,0,1.253-9.09,6.287,6.287,0,0,0-1.969-2.486Zm-1.969,9.588q-1.333,1.233-4.5,1.233h-6.385v-9.23h6.325a12.768,12.768,0,0,1,3.043.239,3.64,3.64,0,0,1,2.069,1.512,4.833,4.833,0,0,1,.776,2.785A4.481,4.481,0,0,1,758.143,169.016Z" transform="translate(-674.14 -128.636)" fill="#100f0c"/>
            <path id="Path_3" data-name="Path 3" d="M431.806,157.407a11.457,11.457,0,0,0-6.166-1.711,10.993,10.993,0,0,0-8.534,3.64q-3.3,3.64-3.3,10.065a15.238,15.238,0,0,0,.617,4.336l-3.063-.816a8.614,8.614,0,0,1-2.566,4.913,6.8,6.8,0,0,1-4.635,1.651,7.738,7.738,0,0,1-4.2-1.213,7.111,7.111,0,0,1-2.864-3.68,16.37,16.37,0,0,1-.915-5.749,16.033,16.033,0,0,1,.776-4.953,7.5,7.5,0,0,1,2.685-3.839,7.713,7.713,0,0,1,4.754-1.432,5.945,5.945,0,0,1,4.118,1.293,7.977,7.977,0,0,1,2.487,4.1l3.2-.8a10.269,10.269,0,0,0-3.521-5.55,9.819,9.819,0,0,0-6.226-1.969,11.8,11.8,0,0,0-5.987,1.552,10.344,10.344,0,0,0-4.2,4.555,15.78,15.78,0,0,0-1.472,7.022,18.281,18.281,0,0,0,1.313,6.922,10.558,10.558,0,0,0,3.8,4.913,11.319,11.319,0,0,0,6.485,1.691,9.889,9.889,0,0,0,6.524-2.208,10.954,10.954,0,0,0,3.6-6.067,15.163,15.163,0,0,0,.676,1.711,11.119,11.119,0,0,0,4.157,4.814,11.239,11.239,0,0,0,6.226,1.77,11.856,11.856,0,0,0,5.987-1.591,10.622,10.622,0,0,0,4.3-4.694,15.7,15.7,0,0,0,1.512-7.022,15.947,15.947,0,0,0-1.432-6.922A11.021,11.021,0,0,0,431.806,157.407Zm-.119,19.355a8.131,8.131,0,0,1-12.094.02,10.662,10.662,0,0,1-2.407-7.34q0-5.828,2.506-8.315a8.155,8.155,0,0,1,5.967-2.486,7.858,7.858,0,0,1,4.4,1.293,8.1,8.1,0,0,1,2.984,3.64,13.793,13.793,0,0,1,1.014,5.49Q434.053,174.056,431.687,176.762Z" transform="translate(-392.798 -126.814)" fill="#100f0c"/>
            <path id="Path_4" data-name="Path 4" d="M871.95,158h-3.521l-8.175,22.259h0l-2.128-3.461a17.653,17.653,0,0,0-2.705-3.421,8.078,8.078,0,0,0-1.969-1.293A8.471,8.471,0,0,0,858.7,169.7a6.638,6.638,0,0,0,1.711-4.635,7.6,7.6,0,0,0-1.015-3.9,5.589,5.589,0,0,0-2.745-2.447,13.911,13.911,0,0,0-5.013-.7H840.7V183.8h3.262V172.342h3.78a9.785,9.785,0,0,1,1.83.119,4.853,4.853,0,0,1,1.492.7,7.461,7.461,0,0,1,1.651,1.731c.617.816,1.412,2.009,2.367,3.541l3.262,5.371h4.117l2.705-7.817H875.49l2.884,7.817h3.72Zm-21.005,11.4h-7.022v-8.553h7.817a5.8,5.8,0,0,1,4.018,1.174,3.919,3.919,0,0,1,1.273,3,4.337,4.337,0,0,1-.656,2.307,3.76,3.76,0,0,1-1.91,1.552A9.819,9.819,0,0,1,850.944,169.4Zm15.118,3.819,2.705-7.559a33.734,33.734,0,0,0,1.333-4.933q.577,2.108,1.75,5.351l2.586,7.141Z" transform="translate(-751.605 -128.66)" fill="#100f0c"/>
            <path id="Path_5" data-name="Path 5" d="M631.668,175.942q-.9,2.725-1.313,4.137c-.239-.855-.637-2.128-1.174-3.819L623.333,158H618.4v25.8h3.143v-21.96l7.141,21.96h2.964l7.161-21.6v21.6h3.143V158h-4.376Z" transform="translate(-573.524 -128.66)" fill="#100f0c"/>
          </g>
          <rect id="Rectangle-2" width="53.926" height="55.647" transform="translate(8.693 8.693)" fill="#fff"/>
          <path id="Fill-32" d="M27.689,43.085H43.8c3.322.02,3.222,6.365,0,6.306H27.689Zm-11.6-25.123V27.53H43.781c3.222,0,3.362,6.146,0,6.087H16.092V58.76H43.781c9.528-.02,12.094-4.157,12.074-9.468.139-7.678.458-8.792-2.665-11.318,3.222-1.79,2.665-6.007,2.665-10.443-.02-8.613-4.675-9.588-12.074-9.568ZM8.892,0H63.156c4.893,0,8.892,4.257,8.892,9.468V67.253c0,5.212-4,9.468-8.892,9.468H8.892C4,76.722,0,72.465,0,67.253V9.468C0,4.257,4,0,8.892,0Z" fill="#e44705"/>
          <path id="by" d="M395.1,361.417V349.8h2.148v4.515l1.711-1.452a3.805,3.805,0,0,1,.816-.06c2.685,0,3.521,1.333,3.521,4.336s-1.194,4.476-3.66,4.476a2.658,2.658,0,0,1-2.586-1.591l-.1-.219-.259,1.591Zm2.307-3.024a1.773,1.773,0,0,0,1.77,1.532c1.333,0,1.89-.617,1.89-2.685s-.358-2.765-1.452-2.765a3.283,3.283,0,0,0-2.069.835l-.3.219v1.551A5.077,5.077,0,0,0,397.407,358.393Zm6.942,6.326.278-1.77a7.805,7.805,0,0,0,.816.06,1.786,1.786,0,0,0,1.89-1.193l.139-.338L404.091,353h2.327l2.168,6.385,1.89-6.385H412.7l-3.362,9.15a3.478,3.478,0,0,1-3.62,2.685A6.8,6.8,0,0,1,404.35,364.719Z" transform="translate(-316.508 -280.219)" fill="#100f0c"/>
        </g>
        <g id="Group_5" data-name="Group 5" transform="translate(96.178 57.816)">
          <g id="Group_3" data-name="Group 3" transform="translate(0 0)">
            <ellipse id="Ellipse_1" data-name="Ellipse 1" cx="13.725" cy="13.725" rx="13.725" ry="13.725" transform="translate(0 10.505) rotate(-22.5)" fill="#100f0c"/>
            <ellipse id="Ellipse_2" data-name="Ellipse 2" cx="12.87" cy="12.87" rx="12.87" ry="12.87" transform="translate(1.129 24.894) rotate(-67.5)" fill="#100f0c"/>
            <ellipse id="Ellipse_3" data-name="Ellipse 3" cx="11.418" cy="11.418" rx="11.418" ry="11.418" transform="translate(6.503 4.644)" fill="#d5cf41"/>
            <path id="Path_6" data-name="Path 6" d="M525.935,334.871a11.835,11.835,0,1,1,11.836-11.835A11.835,11.835,0,0,1,525.935,334.871Zm0-22.816a10.98,10.98,0,1,0,10.98,10.98A10.98,10.98,0,0,0,525.935,312.055Z" transform="translate(-508.015 -307.113)" fill="#100f0c"/>
            <ellipse id="Ellipse_4" data-name="Ellipse 4" cx="9.468" cy="9.468" rx="9.468" ry="9.468" transform="translate(6.542 11.824)" fill="#91ccc7"/>
            <path id="Path_7" data-name="Path 7" d="M524.133,367.705a9.906,9.906,0,1,1,9.667-7.817h0a9.906,9.906,0,0,1-9.667,7.837Zm-.02-18.957a9.051,9.051,0,1,0,8.852,10.94h0a9.051,9.051,0,0,0-8.852-10.94Z" transform="translate(-508.102 -336.507)" fill="#100f0c"/>
            <ellipse id="Ellipse_5" data-name="Ellipse 5" cx="5.868" cy="5.868" rx="5.868" ry="5.868" transform="translate(18.418 15.823)" fill="#eec521"/>
            <path id="Path_8" data-name="Path 8" d="M580.206,380.611a6.306,6.306,0,1,1,6.306-6.306A6.306,6.306,0,0,1,580.206,380.611Zm0-11.756a5.45,5.45,0,1,0,5.45,5.45A5.451,5.451,0,0,0,580.206,368.855Z" transform="translate(-555.92 -352.615)" fill="#100f0c"/>
          </g>
          <g id="Group_4" data-name="Group 4" transform="translate(36.3 11.804)">
            <path id="Path_9" data-name="Path 9" d="M671.271,357.6H669.2l-.835,4H666l2.307-10.8h4.456a2.854,2.854,0,0,1,3.044,2.745C675.807,356.449,673.5,357.6,671.271,357.6Zm.3-5.212H670.3l-.776,3.64h.816c1.591,0,3.043-.358,3.043-2.248C673.38,352.909,672.485,352.391,671.57,352.391Z" transform="translate(-666 -350.641)" fill="#161615"/>
            <path id="Path_10" data-name="Path 10" d="M721.157,368.83a15.182,15.182,0,0,0-.4,2.884h-2.268c.04-.4.179-1.174.3-1.91a3.53,3.53,0,0,1-3.123,2.089,2.361,2.361,0,0,1-2.467-2.586c0-3.64,3.262-5.908,6.345-5.908a9.462,9.462,0,0,1,2.725.378Zm-2.029-3.939c-1.87,0-3.561,1.969-3.561,4.157,0,.736.259,1.333,1.094,1.333s2.228-1.552,2.666-3.5l.438-1.89A1.811,1.811,0,0,0,719.128,364.892Z" transform="translate(-703.811 -360.734)" fill="#161615"/>
            <path id="Path_11" data-name="Path 11" d="M763.154,370.7c-.736,3.282-1.93,4.774-5.53,4.774a8.991,8.991,0,0,1-2.825-.458l.438-1.611a4.873,4.873,0,0,0,2.327.557,2.94,2.94,0,0,0,3.183-2.586l.258-1.074a3.278,3.278,0,0,1-2.924,1.492,2.258,2.258,0,0,1-2.486-2.407c0-3.66,3.342-5.888,6.445-5.888a10.164,10.164,0,0,1,2.626.358Zm-1.591-5.709c-1.87,0-3.6,1.91-3.6,4.177,0,.736.259,1.273,1.054,1.273,1.532,0,2.367-1.949,2.705-3.382l.477-1.969A2.147,2.147,0,0,0,761.563,364.992Z" transform="translate(-737.136 -360.815)" fill="#161615"/>
            <path id="Path_12" data-name="Path 12" d="M810.153,352.148a5.172,5.172,0,0,0-2.228-.537c-.995,0-2.467.457-2.467,1.571,0,1.572,4.277,1.333,4.277,4.317,0,2.367-2.228,3.66-4.973,3.66a9.769,9.769,0,0,1-3.163-.477l.577-1.77a5.469,5.469,0,0,0,2.665.617c1.154-.02,2.427-.537,2.427-1.731,0-1.711-4.237-1.532-4.237-4.257S805.6,350,808.045,350a7.458,7.458,0,0,1,2.665.477Z" transform="translate(-774.627 -349.999)" fill="#161615"/>
            <path id="Path_13" data-name="Path 13" d="M847.827,368.353a2.411,2.411,0,0,0-.119.756c0,1.094.835,1.532,1.83,1.532a4.833,4.833,0,0,0,2.486-.736l-.08,1.452a6.962,6.962,0,0,1-3.1.637c-1.77,0-3.441-.756-3.441-2.765a5.543,5.543,0,0,1,5.331-5.729c1.313,0,2.8.477,2.8,1.969C853.556,368.015,849.856,368.353,847.827,368.353Zm2.745-3.561c-1.233,0-2.128,1.273-2.526,2.327,1.452,0,3.5-.259,3.5-1.532C851.547,364.992,851.109,364.793,850.572,364.793Z" transform="translate(-809.715 -360.815)" fill="#161615"/>
            <path id="Path_14" data-name="Path 14" d="M890.355,370.7c-.736,3.282-1.93,4.774-5.53,4.774a8.992,8.992,0,0,1-2.825-.458l.438-1.611a4.873,4.873,0,0,0,2.327.557,2.94,2.94,0,0,0,3.183-2.586l.259-1.074a3.279,3.279,0,0,1-2.924,1.492,2.258,2.258,0,0,1-2.486-2.407c0-3.66,3.342-5.888,6.445-5.888a10.164,10.164,0,0,1,2.626.358Zm-1.591-5.709c-1.87,0-3.6,1.91-3.6,4.177,0,.736.259,1.273,1.054,1.273,1.532,0,2.367-1.949,2.705-3.382l.477-1.969A2.148,2.148,0,0,0,888.763,364.992Z" transform="translate(-839.034 -360.815)" fill="#161615"/>
            <path id="Path_15" data-name="Path 15" d="M939.7,370.606a18.035,18.035,0,0,0-.3,1.83h-2.089l.219-1.452a3.42,3.42,0,0,1-2.9,1.631c-1.353,0-2.228-.656-2.228-2.009a4.565,4.565,0,0,1,.08-.915l1.154-5.391h2.228l-1.014,4.913a3.924,3.924,0,0,0-.139.835.964.964,0,0,0,1.074,1.074c1.213,0,1.79-1.114,2.009-2.148l.995-4.674h2.228Z" transform="translate(-879.407 -361.455)" fill="#161615"/>
            <path id="Path_16" data-name="Path 16" d="M980.666,365.423a1.849,1.849,0,0,0-.656-.119c-1.472,0-2.307,1.432-2.586,2.725l-.756,3.581H974.4l1.353-6.326a17.439,17.439,0,0,0,.318-1.79h2.108l-.3,1.671a3.127,3.127,0,0,1,2.666-1.87,2.149,2.149,0,0,1,.656.08Z" transform="translate(-913.054 -360.649)" fill="#161615"/>
            <path id="Path_17" data-name="Path 17" d="M1008.361,371.974c-1.79,0-3.461-.995-3.461-2.944,0-3.143,2.029-5.53,5.251-5.53,1.79,0,3.441.955,3.441,2.924A5.185,5.185,0,0,1,1008.361,371.974Zm1.412-6.962c-1.671,0-2.506,2.367-2.506,3.779,0,.975.378,1.691,1.432,1.691,1.631,0,2.586-2.387,2.586-3.779-.02-.995-.457-1.711-1.512-1.711Z" transform="translate(-937.487 -360.815)" fill="#161615"/>
          </g>
        </g>
      </g>
    </g>
  </g>
</svg>
