<svg id="logo-preto" xmlns="http://www.w3.org/2000/svg" width="191.034" height="81.624" viewBox="0 0 191.034 81.624">
  <g id="Group_4639" data-name="Group 4639">
    <g id="Group_4638" data-name="Group 4638">
      <g id="Group_4637" data-name="Group 4637" transform="translate(71.576 1.909)">
        <path id="Path_23867" data-name="Path 23867" d="M245.526,29.884a6.539,6.539,0,0,0,2.528-.771,6.05,6.05,0,0,0,2.132-2.324,7.009,7.009,0,0,0,.778-3.309c0-.009,0-.019,0-.028a11.107,11.107,0,0,0,.756,1.85,9.567,9.567,0,0,0,3.87,4.034,12.758,12.758,0,0,0,6.033,1.273,11.248,11.248,0,0,0,5.989-1.475A9.59,9.59,0,0,0,271.276,25a10.525,10.525,0,0,0,.5-1.277l-2.218,6.479h6.8l1.044-3.9h7.582l1.057,3.9h6.965L284.915,6.563h-7.256l-5.8,16.948a17.959,17.959,0,0,0,.7-5.3q0-5.707-2.909-8.874T261.355,6.16a10.522,10.522,0,0,0-8.186,3.225q-2.933,3.221-2.937,9.013a20.489,20.489,0,0,0,.115,2.141,5.294,5.294,0,0,0-.48-.809,5.968,5.968,0,0,0-3.414-2.1,5.3,5.3,0,0,0,2.321-1.58,5.623,5.623,0,0,0,1.19-3.6,5.738,5.738,0,0,0-1.67-4.189,6.4,6.4,0,0,0-4.781-1.695H231.05V30.213h11.489A28.334,28.334,0,0,0,245.526,29.884Zm35.687-17.193,2.383,8.5h-4.75Zm-23.1.567a3.882,3.882,0,0,1,3.232-1.565,4.025,4.025,0,0,1,3.328,1.537,7.828,7.828,0,0,1,1.23,4.883q0,3.964-1.18,5.5a4.312,4.312,0,0,1-6.618-.034c-.806-1.047-1.208-2.758-1.208-5.146C256.894,16.028,257.3,14.3,258.111,13.258Zm-20.347-1.906h2.94a3.05,3.05,0,0,1,2.125.582,2.114,2.114,0,0,1,.607,1.611,2.27,2.27,0,0,1-.607,1.7,3.128,3.128,0,0,1-2.169.589h-2.894V11.353Zm0,13.775v-4.79h3.38a3.643,3.643,0,0,1,2.448.638,2.172,2.172,0,0,1,.7,1.686,2.364,2.364,0,0,1-.706,1.8,3.471,3.471,0,0,1-2.423.666Z" transform="translate(-231.038 -6.16)" fill="#00151d"/>
        <path id="Path_23868" data-name="Path 23868" d="M452.194,94.222a6.623,6.623,0,0,0-2.795-1.106,19.879,19.879,0,0,0-3.439-.226h-8.53v23.631h2.99v-9.608h5.8c3.2,0,5.407-.7,6.637-2.085A7.994,7.994,0,0,0,454,96.5,5.748,5.748,0,0,0,452.194,94.222ZM450.387,103q-1.218,1.129-4.115,1.128h-5.85V95.682h5.785a12.27,12.27,0,0,1,2.792.211,3.359,3.359,0,0,1,1.89,1.391,4.434,4.434,0,0,1,.719,2.544A4.14,4.14,0,0,1,450.387,103Z" transform="translate(-373.473 -66.018)" fill="#00151d"/>
        <path id="Path_23869" data-name="Path 23869" d="M266.716,93.112a10.5,10.5,0,0,0-5.642-1.562,10.072,10.072,0,0,0-7.808,3.328q-3.026,3.328-3.021,9.212a13.97,13.97,0,0,0,.564,3.963l-2.8-.741a7.865,7.865,0,0,1-2.358,4.5,6.26,6.26,0,0,1-4.254,1.515,7.116,7.116,0,0,1-3.845-1.109,6.546,6.546,0,0,1-2.618-3.362,15.093,15.093,0,0,1-.837-5.267,14.719,14.719,0,0,1,.71-4.533,6.9,6.9,0,0,1,2.46-3.51,7.1,7.1,0,0,1,4.353-1.3,5.872,5.872,0,0,1,3.765,1.177,7.364,7.364,0,0,1,2.287,3.758l2.94-.728a9.369,9.369,0,0,0-3.222-5.078,8.981,8.981,0,0,0-5.707-1.806,10.819,10.819,0,0,0-5.481,1.425,9.461,9.461,0,0,0-3.842,4.177,14.413,14.413,0,0,0-1.348,6.435,16.733,16.733,0,0,0,1.2,6.336,9.655,9.655,0,0,0,3.486,4.508A10.393,10.393,0,0,0,241.634,116a9.054,9.054,0,0,0,5.98-2.02,10.476,10.476,0,0,0,3.3-5.559,13.46,13.46,0,0,0,.62,1.565,10.2,10.2,0,0,0,3.811,4.4,10.3,10.3,0,0,0,5.7,1.614,10.86,10.86,0,0,0,5.49-1.456,9.737,9.737,0,0,0,3.932-4.3,14.382,14.382,0,0,0,1.385-6.432,14.614,14.614,0,0,0-1.317-6.336A10.076,10.076,0,0,0,266.716,93.112Zm-.118,17.735a7.449,7.449,0,0,1-11.077.022,9.747,9.747,0,0,1-2.2-6.73q0-5.331,2.293-7.616a7.468,7.468,0,0,1,5.469-2.284,7.194,7.194,0,0,1,4.034,1.184,7.4,7.4,0,0,1,2.727,3.34,12.574,12.574,0,0,1,.936,5.035Q268.782,108.362,266.6,110.847Z" transform="translate(-231.01 -65.093)" fill="#00151d"/>
        <path id="Path_23870" data-name="Path 23870" d="M522.851,92.9h-3.222l-7.492,20.381,0,0-1.943-3.179a16.109,16.109,0,0,0-2.485-3.142,7.334,7.334,0,0,0-1.806-1.177,7.733,7.733,0,0,0,4.812-2.194,6.078,6.078,0,0,0,1.559-4.236,6.976,6.976,0,0,0-.936-3.566,5.131,5.131,0,0,0-2.516-2.246,12.8,12.8,0,0,0-4.595-.638H494.2v23.631h2.99V106.04h3.47a9.082,9.082,0,0,1,1.67.108,4.467,4.467,0,0,1,1.363.632,6.721,6.721,0,0,1,1.515,1.58c.57.747,1.289,1.837,2.166,3.25l2.99,4.923h3.764l2.479-7.157h9.456l2.637,7.157h3.411Zm-19.232,10.432h-6.435v-7.82h7.154a5.275,5.275,0,0,1,3.678,1.078,3.583,3.583,0,0,1,1.165,2.758,3.965,3.965,0,0,1-.6,2.119,3.453,3.453,0,0,1-1.757,1.419A9.214,9.214,0,0,1,503.619,103.332Zm13.844,3.492,2.485-6.925a31,31,0,0,0,1.224-4.517q.52,1.924,1.6,4.9l2.364,6.541Z" transform="translate(-412.653 -66.025)" fill="#00151d"/>
        <path id="Path_23871" data-name="Path 23871" d="M375.756,109.337q-.818,2.505-1.205,3.792c-.22-.775-.583-1.943-1.078-3.5L368.125,92.9H363.62v23.631H366.5V96.414l6.538,20.118h2.7l6.569-19.78v19.78H385.2V92.9h-4.028Z" transform="translate(-322.532 -66.025)" fill="#00151d"/>
      </g>
      <path id="Fill-32_2_" d="M25.354,39.467H40.109c3.043.015,2.947,5.822,0,5.779H25.354ZM14.739,16.443v8.772H40.1c2.953-.006,3.074,5.627,0,5.583H14.739V53.822H40.1c8.722-.015,11.067-3.8,11.064-8.669.118-7.024.418-8.059-2.448-10.367,2.956-1.636,2.448-5.506,2.448-9.568-.019-7.892-4.279-8.781-11.064-8.772ZM8.139,0h49.7A8.444,8.444,0,0,1,65.98,8.669V61.6a8.444,8.444,0,0,1-8.143,8.669H8.139A8.445,8.445,0,0,1,0,61.6V8.669A8.443,8.443,0,0,1,8.139,0Z" fill="#00151d"/>
      <path id="by_1_" d="M231.29,216.327V205.69h1.977v4.146l1.574-1.323a3.569,3.569,0,0,1,.744-.059c2.451,0,3.225,1.218,3.225,3.966,0,2.792-1.084,4.1-3.359,4.1a2.473,2.473,0,0,1-2.376-1.456l-.09-.192-.239,1.456Zm2.11-2.779a1.62,1.62,0,0,0,1.62,1.41c1.218,0,1.738-.564,1.738-2.466,0-1.828-.328-2.525-1.339-2.525a3.039,3.039,0,0,0-1.887.756,2.506,2.506,0,0,0-.266.192v1.425A4.755,4.755,0,0,0,233.4,213.548Zm6.361,5.794.254-1.62a7.027,7.027,0,0,0,.744.059,1.613,1.613,0,0,0,1.723-1.1l.118-.313-3.1-7.752h2.125l2.02,5.853,1.738-5.853h2.036l-3.077,8.378a3.182,3.182,0,0,1-3.312,2.451A6.085,6.085,0,0,1,239.761,219.342Z" transform="translate(-159.627 -141.959)" fill="#00151d"/>
    </g>
  </g>
  <g id="Group_4643" data-name="Group 4643" transform="translate(92.546 56.837)">
    <g id="Group_4640" data-name="Group 4640">
      <path id="Path_23872" data-name="Path 23872" d="M315.04,184.146a10.885,10.885,0,0,0-7.715,0,12.27,12.27,0,0,0-3.848,21.444,9.01,9.01,0,0,0,3.086,1.76,12.509,12.509,0,0,0,17.109-11.467A12.374,12.374,0,0,0,315.04,184.146ZM300.8,194.213a10.386,10.386,0,1,1,20.657,1.521,5.76,5.76,0,0,0-4.48-2.132c-.1,0-.2,0-.3.009a9.05,9.05,0,0,0-15.724,2.339A10.391,10.391,0,0,1,300.8,194.213Zm13.119,11.529a8.291,8.291,0,0,1-11.383-2.411,8,8,0,0,1-1.137-6.122,8.263,8.263,0,0,1,14.38-3.483,5.655,5.655,0,0,0-.53,10.956A8.083,8.083,0,0,1,313.915,205.742Zm3.058-1.568a4.9,4.9,0,1,1,4.957-4.9A4.934,4.934,0,0,1,316.974,204.174Z" transform="translate(-298.69 -183.44)" fill="#00151d"/>
    </g>
    <g id="Group_4642" data-name="Group 4642" transform="translate(29.205 6.882)">
      <g id="Group_4641" data-name="Group 4641">
        <path id="Path_23873" data-name="Path 23873" d="M397.759,212.324h-1.887l-.768,3.644H392.95l2.095-9.837H399.1a2.6,2.6,0,0,1,2.773,2.494C401.876,211.261,399.782,212.324,397.759,212.324Zm.266-4.75h-1.15l-.71,3.3h.737c1.447,0,2.773-.325,2.773-2.051C399.677,208.045,398.865,207.574,398.025,207.574Z" transform="translate(-392.95 -205.981)" fill="#00151d"/>
        <path id="Path_23874" data-name="Path 23874" d="M427.8,218.385a13.787,13.787,0,0,0-.353,2.624h-2.079c.031-.369.161-1.063.279-1.741a3.232,3.232,0,0,1-2.847,1.9,2.125,2.125,0,0,1-2.243-2.361,5.587,5.587,0,0,1,5.782-5.37,8.8,8.8,0,0,1,2.479.341Zm-1.844-3.569c-1.695,0-3.244,1.8-3.244,3.777,0,.663.235,1.208,1,1.208,1.032,0,2.02-1.416,2.435-3.185l.4-1.71A1.664,1.664,0,0,0,425.96,214.816Z" transform="translate(-412.005 -211.026)" fill="#00151d"/>
        <path id="Path_23875" data-name="Path 23875" d="M452.494,220.079c-.663,2.981-1.757,4.338-5.029,4.338A8.205,8.205,0,0,1,444.9,224l.4-1.459a4.428,4.428,0,0,0,2.126.5,2.665,2.665,0,0,0,2.891-2.361l.235-.973a2.983,2.983,0,0,1-2.671,1.357,2.053,2.053,0,0,1-2.256-2.2c0-3.334,3.04-5.354,5.871-5.354a9.27,9.27,0,0,1,2.389.325Zm-1.444-5.193a3.676,3.676,0,0,0-3.275,3.8c0,.663.236,1.15.957,1.15,1.388,0,2.153-1.769,2.463-3.083l.428-1.785A2.026,2.026,0,0,0,451.05,214.886Z" transform="translate(-428.804 -211.082)" fill="#00151d"/>
        <path id="Path_23876" data-name="Path 23876" d="M480.009,207.6a4.728,4.728,0,0,0-2.036-.486c-.9,0-2.243.412-2.243,1.431,0,1.431,3.895,1.208,3.895,3.923,0,2.153-2.036,3.334-4.53,3.334a8.87,8.87,0,0,1-2.875-.428l.517-1.608a4.989,4.989,0,0,0,2.42.561c1.047-.015,2.212-.486,2.212-1.577,0-1.549-3.864-1.385-3.864-3.879,0-2.345,2.345-3.216,4.589-3.216a6.777,6.777,0,0,1,2.42.443Z" transform="translate(-447.659 -205.65)" fill="#00151d"/>
        <path id="Path_23877" data-name="Path 23877" d="M500.071,217.941a2.178,2.178,0,0,0-.1.694c0,.988.768,1.388,1.667,1.388a4.407,4.407,0,0,0,2.271-.679l-.074,1.314a6.352,6.352,0,0,1-2.816.576c-1.608,0-3.126-.694-3.126-2.507a5.039,5.039,0,0,1,4.852-5.208c1.2,0,2.553.428,2.553,1.785C505.292,217.632,501.915,217.941,500.071,217.941Zm2.494-3.232c-1.122,0-1.933,1.165-2.3,2.125,1.326,0,3.185-.235,3.185-1.4C503.449,214.886,503.052,214.71,502.565,214.71Z" transform="translate(-465.375 -211.082)" fill="#00151d"/>
        <path id="Path_23878" data-name="Path 23878" d="M526.814,220.079c-.663,2.981-1.757,4.338-5.029,4.338A8.2,8.2,0,0,1,519.22,224l.4-1.459a4.428,4.428,0,0,0,2.125.5,2.665,2.665,0,0,0,2.891-2.361l.235-.973a2.983,2.983,0,0,1-2.671,1.357,2.053,2.053,0,0,1-2.256-2.2c0-3.334,3.04-5.354,5.871-5.354a9.271,9.271,0,0,1,2.389.325Zm-1.447-5.193a3.676,3.676,0,0,0-3.275,3.8c0,.663.235,1.15.957,1.15,1.388,0,2.153-1.769,2.463-3.083l.428-1.785A2.026,2.026,0,0,0,525.367,214.886Z" transform="translate(-480.097 -211.082)" fill="#00151d"/>
        <path id="Path_23879" data-name="Path 23879" d="M555.3,219.7a16.4,16.4,0,0,0-.279,1.667h-1.9l.208-1.326a3.119,3.119,0,0,1-2.64,1.49c-1.2,0-2.036-.6-2.036-1.828a4.128,4.128,0,0,1,.074-.84l1.047-4.911h2.036l-.93,4.471a3.618,3.618,0,0,0-.118.768.871.871,0,0,0,.973.973c1.106,0,1.624-1.019,1.828-1.961l.9-4.248H556.5Z" transform="translate(-500.408 -211.378)" fill="#00151d"/>
        <path id="Path_23880" data-name="Path 23880" d="M578.895,215.39a1.674,1.674,0,0,0-.6-.1c-1.342,0-2.094,1.3-2.345,2.479l-.694,3.26H573.2l1.224-5.754a15.915,15.915,0,0,0,.294-1.636h1.918l-.279,1.518a2.861,2.861,0,0,1,2.42-1.695,1.943,1.943,0,0,1,.589.074Z" transform="translate(-517.351 -211.04)" fill="#00151d"/>
        <path id="Path_23881" data-name="Path 23881" d="M594.192,221.222c-1.636,0-3.142-.9-3.142-2.683a4.681,4.681,0,0,1,4.778-5.029c1.636,0,3.126.871,3.126,2.671A4.72,4.72,0,0,1,594.192,221.222Zm1.286-6.342c-1.518,0-2.287,2.153-2.287,3.436,0,.886.341,1.534,1.3,1.534,1.49,0,2.345-2.169,2.345-3.436C596.835,215.53,596.435,214.879,595.478,214.879Z" transform="translate(-529.671 -211.075)" fill="#00151d"/>
      </g>
    </g>
  </g>
</svg>
